<!DOCTYPE svg PUBLIC "-//W3C//DTD SVG 20010904//EN" "http://www.w3.org/TR/2001/REC-SVG-20010904/DTD/svg10.dtd">
<svg version="1.0" xmlns="http://www.w3.org/2000/svg" width="500px" height="500px" viewBox="0 0 5000 5000" preserveAspectRatio="xMidYMid meet">
<g id="layer101" fill="#000000" stroke="none">
 <path d="M3300 4091 c-71 -15 -128 -60 -166 -131 -29 -54 -27 -240 3 -296 63 -118 214 -157 294 -77 36 36 49 100 49 249 l0 114 -29 0 c-16 0 -31 -6 -34 -12 -3 -10 -7 -10 -20 1 -23 18 -82 16 -113 -4 -30 -19 -54 -71 -54 -115 0 -44 24 -96 54 -115 29 -19 92 -23 109 -6 27 27 38 -10 15 -52 -18 -35 -40 -46 -90 -47 -39 0 -54 6 -82 30 -81 71 -98 243 -33 337 43 63 138 91 214 62 23 -8 30 -7 40 7 18 25 17 30 -14 42 -41 16 -103 21 -143 13z m104 -213 c9 -12 16 -38 16 -58 0 -51 -24 -80 -65 -80 -41 0 -65 29 -65 80 0 51 24 80 65 80 24 0 39 -7 49 -22z"/>
 <path d="M847 3996 c-20 -8 -44 -20 -53 -27 -76 -63 -71 -258 8 -314 40 -27 94 -37 141 -24 83 22 121 80 121 184 0 103 -38 162 -119 184 -49 13 -51 13 -98 -3z m110 -92 c41 -63 18 -195 -36 -202 -56 -8 -79 12 -96 89 -8 32 10 103 31 124 26 25 81 19 101 -11z"/>
 <path d="M1247 3996 c-20 -8 -44 -20 -53 -27 -76 -63 -71 -258 8 -314 40 -27 94 -37 141 -24 83 22 121 80 121 184 0 103 -38 162 -119 184 -49 13 -51 13 -98 -3z m110 -92 c41 -63 18 -195 -36 -202 -56 -8 -79 12 -96 89 -8 32 10 103 31 124 26 25 81 19 101 -11z"/>
 <path d="M2023 3999 c-54 -16 -63 -46 -63 -219 l0 -150 40 0 40 0 0 123 c0 142 10 170 57 175 47 5 56 -21 61 -170 l4 -128 39 0 39 0 0 185 0 185 -40 0 c-36 0 -40 -2 -40 -25 0 -31 -5 -31 -33 -1 -26 29 -61 37 -104 25z"/>
 <path d="M2460 4004 c-14 -3 -40 -7 -57 -10 -30 -4 -33 -8 -33 -39 l0 -34 69 6 c84 7 121 -1 121 -26 0 -26 -18 -38 -75 -51 -89 -20 -125 -55 -125 -121 0 -43 56 -98 102 -101 42 -2 84 0 126 7 28 5 32 10 32 39 l0 33 -78 -5 c-65 -4 -80 -2 -92 13 -13 15 -12 19 7 34 11 10 46 23 76 30 79 17 107 48 107 116 0 47 -4 56 -31 79 -17 14 -39 26 -49 26 -9 0 -30 2 -46 4 -16 2 -40 2 -54 0z"/>
 <path d="M4456 4000 c-74 -23 -109 -101 -109 -245 0 -151 37 -227 120 -245 78 -18 145 22 175 107 8 23 13 81 13 143 0 92 -3 111 -25 154 -14 28 -36 58 -50 67 -31 22 -86 31 -124 19z m91 -97 c15 -22 18 -49 18 -148 0 -140 -13 -175 -65 -175 -48 0 -64 43 -64 175 0 132 16 175 64 175 21 0 35 -8 47 -27z"/>
 <path d="M4482 3788 c-21 -21 -8 -68 19 -68 10 0 39 30 39 40 0 10 -29 40 -39 40 -4 0 -12 -5 -19 -12z"/>
 <path d="M511 3990 c-65 -15 -74 -35 -79 -170 l-4 -120 -44 0 c-44 0 -44 0 -44 -35 0 -35 0 -35 45 -35 l45 0 0 -50 0 -50 45 0 45 0 0 50 0 50 65 0 65 0 0 35 0 35 -65 0 -65 0 0 103 c0 67 4 107 12 115 7 7 36 12 65 12 l53 0 0 35 0 35 -52 -1 c-29 -1 -68 -5 -87 -9z"/>
 <path d="M1600 3815 l0 -185 45 0 c42 0 45 2 45 27 l0 26 23 -21 c31 -29 76 -42 118 -33 32 6 34 10 37 50 3 40 2 42 -17 32 -11 -6 -40 -11 -64 -11 -35 0 -50 6 -71 26 -25 26 -26 30 -26 150 l0 124 -45 0 -45 0 0 -185z"/>
 <path d="M2800 3815 l0 -185 45 0 c42 0 45 2 45 27 l0 26 23 -21 c31 -29 76 -42 118 -33 32 6 34 10 37 50 3 40 2 42 -17 32 -11 -6 -40 -11 -64 -11 -35 0 -50 6 -71 26 -25 26 -26 30 -26 150 l0 124 -45 0 -45 0 0 -185z"/>
 <path d="M3570 3960 l0 -40 50 0 50 0 0 -166 0 -166 -50 7 -50 7 0 -34 c0 -34 0 -35 64 -46 35 -7 77 -12 95 -12 l31 0 0 205 0 205 55 0 55 0 0 40 0 40 -150 0 -150 0 0 -40z"/>
 <path d="M3930 3815 l0 -185 30 0 c24 0 30 4 30 21 0 20 1 20 31 -5 34 -29 62 -28 90 4 14 17 16 16 43 -6 20 -18 34 -22 54 -18 54 13 57 21 60 204 l3 170 -35 0 -35 0 -3 -147 -3 -148 -25 0 -25 0 -3 148 -3 147 -34 0 -35 0 0 -127 c0 -71 -3 -138 -6 -150 -7 -27 -48 -32 -58 -7 -3 9 -6 76 -6 150 l0 134 -35 0 -35 0 0 -185z"/>
 <path d="M2655 3163 c-5 -5 -44 -24 -85 -43 -41 -18 -121 -55 -178 -82 -57 -26 -105 -48 -107 -48 -2 0 -61 -27 -130 -60 -69 -33 -128 -60 -130 -60 -2 0 -61 -27 -130 -60 -69 -33 -128 -60 -130 -60 -2 0 -61 -27 -130 -60 -69 -33 -128 -60 -130 -60 -2 0 -50 -22 -107 -49 -57 -27 -134 -63 -171 -80 -39 -17 -66 -35 -62 -41 3 -5 10 -10 16 -10 5 0 51 -18 102 -39 50 -22 252 -105 447 -186 195 -80 409 -169 475 -196 66 -28 158 -67 205 -86 114 -48 115 -48 88 -87 -13 -17 -26 -35 -31 -41 -4 -5 -25 -35 -47 -65 -22 -30 -43 -59 -47 -65 -5 -5 -119 -165 -255 -355 -136 -190 -258 -360 -272 -379 -14 -19 -26 -38 -26 -42 0 -8 45 7 250 81 63 23 126 46 140 50 57 19 194 71 199 76 6 6 72 108 231 359 56 88 151 239 212 335 61 96 134 213 163 260 l53 84 -212 104 c-116 57 -310 151 -431 209 -121 57 -226 111 -234 118 -13 13 -7 18 40 39 30 13 112 51 182 85 70 34 130 61 132 61 2 0 69 32 149 70 81 39 148 70 150 70 2 0 64 29 138 64 73 35 161 76 195 91 35 15 61 31 58 35 -2 4 -35 10 -72 14 -37 3 -104 11 -148 16 -44 5 -118 14 -165 19 -47 6 -107 13 -135 17 -27 3 -54 2 -60 -3z"/>
 </g>

</svg>